<?xml version="1.0" standalone="no"?>
<!DOCTYPE svg PUBLIC "-//W3C//DTD SVG 20010904//EN"
 "http://www.w3.org/TR/2001/REC-SVG-20010904/DTD/svg10.dtd">
<svg version="1.0" xmlns="http://www.w3.org/2000/svg"
 width="512.000000pt" height="512.000000pt" viewBox="0 0 512.000000 512.000000"
 preserveAspectRatio="xMidYMid meet">
<metadata>
Created by potrace 1.14, written by Peter Selinger 2001-2017
</metadata>
<g transform="translate(0.000000,512.000000) scale(0.100000,-0.100000)"
fill="#000000" stroke="none">
<path d="M2289 3746 c-2 -2 -49 -7 -104 -10 -55 -4 -113 -9 -130 -11 -16 -2
-55 -6 -85 -10 -30 -3 -95 -13 -145 -21 -49 -8 -103 -17 -120 -20 -49 -8 -196
-43 -250 -60 -295 -92 -454 -213 -392 -298 13 -18 19 -16 103 29 49 26 96 52
104 56 112 60 492 164 670 184 50 5 145 18 162 21 142 25 798 25 935 0 27 -5
92 -15 143 -21 25 -3 52 -8 60 -10 8 -2 33 -6 55 -10 215 -31 584 -160 707
-246 14 -11 30 -19 35 -19 12 0 33 45 33 71 0 22 -93 119 -115 119 -7 0 -15 4
-17 8 -12 30 -331 142 -473 167 -16 2 -41 7 -55 10 -67 14 -258 41 -355 51
-38 3 -81 8 -95 11 -32 5 -666 14 -671 9z"/>
<path d="M2319 3446 c-2 -2 -47 -7 -101 -10 -53 -4 -105 -8 -115 -10 -10 -2
-46 -7 -78 -11 -33 -4 -69 -9 -80 -11 -11 -2 -47 -9 -80 -15 -33 -6 -71 -13
-85 -16 -126 -23 -350 -98 -459 -153 l-75 -37 95 -36 c83 -32 208 -70 272 -83
85 -17 304 -53 362 -59 39 -4 79 -9 89 -11 140 -25 838 -25 997 1 13 2 51 6
84 10 33 3 101 13 150 21 50 8 104 17 120 20 107 18 381 98 433 127 22 13 18
16 -75 59 -219 102 -438 155 -843 203 -52 7 -605 16 -611 11z"/>
<path d="M1075 2988 c3 -40 9 -77 12 -82 3 -5 47 -28 97 -51 246 -116 568
-191 1001 -231 76 -8 602 -12 673 -6 l52 4 0 86 0 87 -322 0 c-280 0 -454 6
-548 20 -14 2 -52 6 -85 10 -277 29 -594 109 -783 197 -46 21 -88 38 -94 38
-7 0 -8 -23 -3 -72z"/>
<path d="M3950 3024 c-36 -18 -93 -43 -127 -54 l-63 -22 -1 -54 c-1 -30 -2
-64 -3 -76 -3 -34 2 -38 37 -26 50 17 234 104 239 114 3 5 9 42 13 82 8 86 6
87 -95 36z"/>
<path d="M3168 2826 l-78 -9 0 -89 0 -90 40 6 c22 3 58 9 80 12 35 5 40 9 41
32 1 15 2 53 3 85 1 32 0 59 -3 60 -3 2 -41 -2 -83 -7z"/>
<path d="M1115 2656 c5 -45 17 -150 20 -176 2 -14 6 -50 10 -80 10 -91 13
-112 20 -175 4 -33 8 -71 10 -85 2 -14 7 -52 10 -85 3 -33 8 -71 10 -85 3 -14
7 -52 10 -85 4 -33 8 -71 10 -85 2 -14 7 -52 10 -85 5 -55 11 -100 20 -165 4
-23 14 -113 20 -171 1 -14 5 -52 9 -85 4 -32 9 -79 12 -104 6 -52 14 -114 19
-150 2 -14 6 -54 10 -90 4 -36 8 -76 10 -90 1 -14 6 -50 9 -80 4 -30 9 -71 11
-90 10 -81 18 -146 18 -158 2 -63 288 -211 481 -248 11 -2 55 -10 96 -18 86
-17 126 -23 190 -31 25 -3 63 -7 85 -10 22 -3 119 -8 216 -11 l176 -7 11 69
c7 38 19 105 26 149 18 96 53 297 61 343 6 41 13 79 19 117 3 17 12 71 20 120
8 50 18 110 21 135 3 25 10 70 15 100 9 58 14 95 31 225 5 44 12 91 14 105 2
14 7 52 10 85 4 33 8 71 10 85 2 14 6 54 10 90 3 36 8 84 11 107 2 23 6 75 9
115 4 40 8 92 10 116 2 24 7 94 10 155 l6 112 -308 0 c-169 0 -353 4 -408 8
-253 20 -308 28 -602 83 -86 16 -321 93 -460 151 -7 3 -10 -5 -8 -21z"/>
<path d="M3975 2671 c-6 -5 -59 -27 -119 -50 -60 -22 -110 -42 -111 -43 -2 -2
-6 -43 -10 -93 -3 -49 -8 -108 -10 -130 -2 -22 -6 -76 -10 -120 -3 -44 -8 -96
-10 -115 -2 -19 -7 -69 -10 -110 -4 -41 -8 -86 -10 -100 -2 -14 -6 -63 -10
-110 -3 -47 -8 -92 -10 -100 -2 -8 -7 -44 -10 -80 -3 -36 -8 -81 -10 -100 -2
-19 -7 -57 -10 -85 -3 -27 -12 -108 -21 -180 -8 -71 -17 -150 -19 -175 -3 -25
-9 -76 -15 -115 -5 -38 -12 -89 -15 -112 -3 -24 -7 -61 -10 -83 -10 -70 -14
-104 -20 -151 -3 -25 -8 -56 -10 -70 -3 -13 -7 -42 -10 -64 -3 -22 -7 -53 -10
-69 -7 -37 -8 -39 -6 -54 2 -21 160 65 229 126 23 20 29 47 47 202 16 144 26
230 30 260 3 22 8 62 21 180 2 19 6 51 9 70 2 19 7 60 10 90 7 63 8 77 35 295
11 88 22 185 25 215 3 30 7 66 10 80 2 14 7 54 10 90 4 36 9 73 10 82 2 9 6
45 9 80 4 35 8 72 10 83 2 11 7 52 10 90 4 39 9 81 11 95 6 43 15 123 20 173
3 26 7 61 10 77 5 30 -10 41 -30 21z"/>
<path d="M3120 2462 c-14 -2 -28 -7 -32 -10 -3 -4 -9 -59 -12 -122 -4 -63 -8
-140 -11 -170 -2 -30 -7 -89 -10 -130 -11 -126 -26 -287 -30 -310 -2 -8 -6
-44 -10 -80 -4 -36 -9 -74 -11 -85 -2 -11 -6 -45 -9 -75 -3 -30 -10 -82 -15
-115 -5 -33 -12 -80 -15 -105 -3 -25 -10 -70 -15 -100 -5 -30 -12 -75 -15
-100 -3 -25 -13 -85 -21 -135 -9 -49 -18 -103 -21 -120 -2 -16 -11 -66 -18
-110 -8 -44 -17 -92 -19 -108 -3 -15 -10 -53 -15 -85 -6 -31 -13 -71 -16 -88
-2 -17 -12 -66 -20 -110 -8 -43 -15 -81 -15 -83 0 -6 140 6 146 12 8 8 55 261
99 537 2 14 10 66 19 115 8 50 17 110 21 135 3 25 10 70 15 100 6 30 13 75 16
100 7 53 8 61 23 160 6 41 13 95 16 120 3 25 8 63 11 85 11 77 12 91 19 155 4
36 9 72 10 81 2 8 6 48 10 88 3 40 8 80 10 89 1 9 6 58 10 107 4 50 8 106 10
125 2 19 6 81 10 138 l7 103 -48 -3 c-27 -2 -60 -5 -74 -6z"/>
</g>
</svg>
